<svg width="778" height="534" viewBox="0 0 778 534" fill="none" xmlns="http://www.w3.org/2000/svg">
<path d="M750.315 174.825H599.405C592.023 174.825 585.943 168.871 585.943 161.402V73.7186C585.943 66.3576 591.914 60.2955 599.405 60.2955H750.315C757.698 60.2955 763.777 66.2493 763.777 73.7186V161.402C763.669 168.871 757.698 174.825 750.315 174.825Z" fill="#DEF1E7"/>
<path d="M298.345 169.196H135.384C127.242 169.196 120.619 162.592 120.619 154.474V56.7233C120.619 48.6045 127.242 42.0012 135.384 42.0012H298.345C306.488 42.0012 313.111 48.6045 313.111 56.7233V154.474C313.111 162.592 306.488 169.196 298.345 169.196Z" fill="#F49944" fill-opacity="0.1"/>
<path d="M198.68 324.535H35.8273C27.6847 324.535 21.062 317.932 21.062 309.813V211.413C21.062 203.295 27.6847 196.691 35.8273 196.691H198.68C206.822 196.691 213.445 203.295 213.445 211.413V309.813C213.445 318.04 206.822 324.535 198.68 324.535Z" fill="#DEF1E7"/>
<path fill-rule="evenodd" clip-rule="evenodd" d="M454.249 349.325C453.706 347.051 453.598 344.02 453.598 339.798C447.192 339.907 447.626 349.325 453.815 349.325H454.249ZM453.489 336.443H475.528C475.528 346.835 475.637 351.49 471.837 353.655H457.18C456.095 353.005 455.226 352.139 454.792 350.84H453.815C445.781 350.84 445.346 338.608 453.598 338.175L453.489 336.443Z" fill="#4C4C4C"/>
<path d="M117.797 395.439V421.852C132.345 428.997 170.995 420.445 170.995 420.445L201.177 415.141L203.132 494.488L203.24 498.71L203.457 509.102L203.674 520.036H247.536C247.427 515.056 241.456 511.267 236.571 509.211C234.725 508.453 232.988 507.912 231.685 507.695C227.234 506.829 226.257 498.927 226.257 498.927V498.71L226.691 494.488L235.268 420.445L252.964 435.708L254.81 432.028L260.89 437.224L260.998 437.332L268.273 443.611L277.175 451.297L305.511 418.064C302.037 414.167 295.632 415.357 289.769 417.739C283.038 420.445 276.958 424.775 276.958 424.775L272.615 419.904L272.29 419.579L266.101 412.759L213.337 353.979L117.797 395.439Z" fill="#191919"/>
<path d="M266.317 412.759L254.917 432.028L261.106 437.332L272.397 419.579L266.317 412.759Z" fill="#FAA895"/>
<path d="M203.022 494.488L203.131 498.71H226.365L226.799 494.488H203.022Z" fill="#FAA895"/>
<path d="M203.348 509.102L203.565 520.036H247.535C247.427 515.056 241.456 511.267 236.57 509.211C231.902 510.401 225.062 512.783 225.062 516.463H211.708C211.708 516.463 208.777 509.968 203.348 509.102Z" fill="#6B3903"/>
<path d="M269.032 444.152L277.5 451.08L306.053 418.388C293.785 412.11 285.968 429.755 288.683 432.786L279.997 442.745C279.889 442.745 273.157 440.688 269.032 444.152Z" fill="#6B3903"/>
<path d="M165.458 370.217C166.327 369.243 168.281 350.624 167.521 349.433" stroke="black" stroke-width="0.88" stroke-miterlimit="10"/>
<path d="M164.915 519.927C168.813 519.927 171.972 516.777 171.972 512.891C171.972 509.005 168.813 505.855 164.915 505.855C161.018 505.855 157.858 509.005 157.858 512.891C157.858 516.777 161.018 519.927 164.915 519.927Z" fill="#6B3903"/>
<path d="M147.653 519.927C151.551 519.927 154.71 516.777 154.71 512.891C154.71 509.005 151.551 505.855 147.653 505.855C143.756 505.855 140.596 509.005 140.596 512.891C140.596 516.777 143.756 519.927 147.653 519.927Z" fill="#6B3903"/>
<path d="M130.39 519.927C134.287 519.927 137.447 516.777 137.447 512.891C137.447 509.005 134.287 505.855 130.39 505.855C126.493 505.855 123.333 509.005 123.333 512.891C123.333 516.777 126.493 519.927 130.39 519.927Z" fill="#6B3903"/>
<path d="M113.237 519.927C117.134 519.927 120.294 516.777 120.294 512.891C120.294 509.005 117.134 505.855 113.237 505.855C109.339 505.855 106.18 509.005 106.18 512.891C106.18 516.777 109.339 519.927 113.237 519.927Z" fill="#6B3903"/>
<path d="M183.046 440.147L176.206 444.585H146.024V499.252H169.04V505.963H109.328V499.252H132.67V443.936H103.248L97.2769 440.147H183.046Z" fill="#331A02"/>
<path d="M97.2769 440.147H183.046V431.703C183.046 425.858 178.377 421.203 172.515 421.203H107.808C101.945 421.203 97.2769 425.858 97.2769 431.703V440.147Z" fill="#6B3903"/>
<path d="M200.743 329.406C207.582 329.406 228.536 331.355 211.274 306.241C211.491 302.777 213.011 292.493 205.085 287.946C197.16 283.4 200.091 280.694 200.743 278.529C201.394 276.364 203.565 244.213 161.115 246.162C156.772 247.028 140.27 250.059 141.79 274.09C143.31 298.122 143.31 306.024 143.31 306.024L200.743 329.406Z" fill="#021D4E"/>
<path d="M255.135 319.772C255.135 319.772 269.9 317.391 271.637 310.787C271.637 310.787 274.243 307.648 271.637 305.699C271.637 305.699 270.66 302.993 268.706 302.993C266.752 302.993 246.992 306.349 244.278 305.699C241.564 305.05 240.913 322.045 240.913 322.045L255.135 319.772Z" fill="#E08F82"/>
<path d="M257.85 309.272L271.312 305.808" stroke="#BC5E63" stroke-miterlimit="10" stroke-linecap="round"/>
<path d="M271.203 311.112C271.203 311.112 271.095 307.865 269.9 308.514C268.489 309.272 267.078 310.679 266.426 311.004C264.906 311.653 262.301 313.277 261.541 313.494" stroke="#BC5E63" stroke-miterlimit="10" stroke-linecap="round"/>
<path d="M263.603 311.004C262.952 310.571 262.083 310.571 261.541 311.112C260.129 312.519 257.415 314.901 256.112 314.901C254.375 315.009 250.901 314.684 249.381 313.494C247.861 312.303 245.798 311.653 245.798 311.653C245.798 311.653 246.667 307.973 246.45 306.241C246.232 304.509 247.101 302.56 247.861 301.803C248.621 301.045 250.684 296.823 248.512 294.766C248.512 294.766 246.884 293.9 246.558 294.766C246.232 295.632 243.627 300.287 242.433 301.911C241.347 303.535 231.793 314.251 230.49 317.499C229.296 320.746 233.639 326.917 233.639 326.917L240.804 324.319C240.804 324.319 251.987 320.746 252.964 320.746C253.941 320.746 259.043 319.772 263.82 313.169C264.472 312.519 264.363 311.545 263.603 311.004Z" fill="#FAA895"/>
<path d="M240.913 324.427C240.261 325.618 230.273 343.263 224.41 353.871C218.33 364.913 209.971 362.531 206.497 360.799C203.239 359.175 187.28 344.129 185.217 342.18C185.109 342.072 185 341.964 185 341.964C180.766 353.979 168.389 350.299 168.389 350.299C167.086 357.66 171.103 372.274 171.103 372.274L117.905 395.331L127.676 346.185H99.0139C90.437 342.288 95.6483 330.597 95.6483 330.597C95.6483 330.597 115.516 309.597 125.505 303.21C135.493 296.823 138.207 297.581 138.207 297.581C138.207 297.581 174.469 305.916 182.611 306.024C190.754 306.133 199.657 319.339 199.657 319.339L211.599 336.443L230.49 317.391C232.77 323.236 240.913 324.427 240.913 324.427Z" fill="#FF66F4"/>
<path d="M240.913 324.535C240.261 325.618 230.273 343.262 224.41 353.979C218.33 365.021 209.971 362.639 206.496 360.907C203.239 359.284 187.28 344.237 185.217 342.288C186.954 333.412 180.006 329.406 180.006 329.406C181.2 327.241 186.086 324.86 186.086 324.86C186.086 324.86 205.845 350.19 208.342 353.005C210.839 355.82 214.531 355.062 217.896 353.221C221.153 351.598 239.935 325.834 240.913 324.535Z" fill="#DB56D8"/>
<path d="M144.07 330.597C144.07 330.597 137.23 337.2 141.681 345.319L157.967 370.325C157.967 370.325 162.744 370.866 162.961 354.953L163.504 370.325C163.504 370.325 166.218 370 166.543 365.887C166.869 361.773 167.521 349.541 167.521 349.541C167.521 349.541 161.115 331.138 144.07 330.597Z" fill="#FAA895"/>
<path d="M144.069 330.597L115.95 329.406" stroke="black" stroke-miterlimit="10" stroke-linecap="round"/>
<path d="M139.945 323.236C139.945 323.236 129.413 326.267 127.025 329.839" stroke="black" stroke-miterlimit="10" stroke-linecap="round"/>
<path d="M106.94 398.254H145.156C152.213 398.254 157.967 392.517 157.967 385.48V358.093C157.967 351.057 152.213 345.319 145.156 345.319H106.94C99.883 345.319 94.1289 351.057 94.1289 358.093V385.372C94.1289 392.517 99.883 398.254 106.94 398.254Z" fill="#6B3903"/>
<path d="M113.997 392.733H121.597C127.134 392.733 131.476 388.295 131.476 382.882C131.476 377.361 127.025 373.031 121.597 373.031H113.997C108.46 373.031 104.117 377.47 104.117 382.882C104.009 388.295 108.46 392.733 113.997 392.733Z" fill="#824C17"/>
<path d="M114.214 437.008C116.928 437.008 119.099 434.843 119.099 432.136V384.939C119.099 382.233 116.928 380.068 114.214 380.068C111.499 380.068 109.328 382.233 109.328 384.939V432.136C109.328 434.843 111.499 437.008 114.214 437.008Z" fill="#331A02"/>
<path d="M182.503 306.674C187.28 322.587 162.961 317.066 156.881 313.494C150.801 309.921 138.207 297.689 138.207 297.689C149.064 297.148 151.235 297.906 153.624 299.096C156.012 300.287 158.618 300.179 159.704 299.096C160.898 298.014 161.549 285.89 161.549 285.89C153.298 286.323 154.927 282.75 154.927 280.91C154.927 278.962 156.881 278.962 156.881 278.962H158.835C167.303 278.962 165.458 260.776 165.458 260.776C181.2 259.693 184.24 266.838 184.783 275.389C185.868 294.225 174.143 291.194 174.143 291.194L173.275 302.56C178.703 306.133 182.503 306.674 182.503 306.674Z" fill="#FAA895"/>
<path d="M173.166 269.327C173.166 269.327 168.823 267.054 166.435 271.059" stroke="black" stroke-width="0.9205" stroke-miterlimit="10" stroke-linecap="round" stroke-linejoin="round"/>
<path d="M171.859 277.329C172.674 276.949 172.902 275.72 172.368 274.582C171.835 273.445 170.742 272.831 169.927 273.211C169.113 273.591 168.885 274.821 169.418 275.958C169.952 277.096 171.045 277.709 171.859 277.329Z" fill="black"/>
<path d="M181.104 272.499C181.756 272.195 181.934 271.202 181.503 270.282C181.071 269.361 180.192 268.861 179.54 269.165C178.889 269.469 178.71 270.462 179.142 271.382C179.574 272.303 180.453 272.803 181.104 272.499Z" fill="black"/>
<path d="M180.983 266.513C180.983 266.513 177.943 264.889 177.074 268.028" stroke="black" stroke-width="0.9477" stroke-miterlimit="10" stroke-linecap="round" stroke-linejoin="round"/>
<path d="M176.532 270.518C176.532 270.518 177.509 275.931 179.137 277.013C180.766 277.987 178.16 279.395 177.183 279.395" stroke="#BC5E63" stroke-miterlimit="10" stroke-linecap="round"/>
<path d="M179.354 284.266C176.532 285.24 175.012 283.292 175.012 283.292L181.852 281.018C181.852 281.018 182.72 283.075 179.354 284.266Z" fill="white"/>
<path d="M165.784 285.89C165.892 285.998 166.218 286.431 166.761 287.189C166.544 286.972 166.435 286.864 166.327 286.648C166.001 286.106 165.892 285.89 165.784 285.89Z" fill="#F99895"/>
<path d="M182.503 306.674C175.555 306.782 171.755 305.05 170.67 304.725C169.584 304.401 171.429 296.39 171.321 294.442C171.321 293.251 168.498 289.246 166.87 287.189C169.584 290.112 174.252 291.194 174.252 291.194L173.384 302.56C178.704 306.133 182.503 306.674 182.503 306.674Z" fill="#E08F82"/>
<path d="M135.384 111.065L152.538 122.107L165.783 117.668L179.354 120.591L196.291 67.1154L207.691 120.916L219.09 101.431L230.164 121.89L241.13 116.586L246.232 121.132L262.626 113.338L268.489 117.344H289.117" stroke="#FFA401" stroke-width="4" stroke-miterlimit="10" stroke-linecap="round" stroke-linejoin="round"/>
<path d="M640.878 112.581H615.256V160.644H640.878V112.581Z" fill="#F2FEF8"/>
<path d="M640.878 129.468H615.256V160.536H640.878V129.468Z" fill="#00C45A"/>
<path d="M673.449 124.055H647.827V160.536H673.449V124.055Z" fill="#F2FEF8"/>
<path d="M673.449 144.948H647.827V160.536H673.449V144.948Z" fill="#00C45A"/>
<path d="M706.019 102.513H680.397V160.536H706.019V102.513Z" fill="#F2FEF8"/>
<path d="M706.019 127.844H680.397V160.536H706.019V127.844Z" fill="#00C45A"/>
<path d="M738.59 102.08H712.968V160.536H738.59V102.08Z" fill="#F2FEF8"/>
<path d="M69.5921 220.398H50.4841C48.5299 220.398 46.9014 218.774 46.9014 216.826C46.9014 214.877 48.5299 213.254 50.4841 213.254H69.5921C71.5464 213.254 73.1749 214.877 73.1749 216.826C73.1749 218.774 71.5464 220.398 69.5921 220.398Z" fill="#F2FEF8"/>
<path d="M97.8202 232.847H50.2673C48.3131 232.847 46.6846 231.223 46.6846 229.275C46.6846 227.326 48.3131 225.702 50.2673 225.702H97.7116C99.6659 225.702 101.294 227.326 101.294 229.275C101.403 231.223 99.7744 232.847 97.8202 232.847Z" fill="#00C45A"/>
<path d="M195.205 151.334H137.013C135.059 151.334 133.43 149.711 133.43 147.762C133.43 145.814 135.059 144.19 137.013 144.19H195.205C197.16 144.19 198.788 145.814 198.788 147.762C198.788 149.711 197.16 151.334 195.205 151.334Z" fill="#F36C5B" fill-opacity="0.1"/>
<path d="M550.983 268.894H334.933C329.613 268.894 325.27 264.564 325.27 259.26V126.112C325.27 120.808 329.613 116.478 334.933 116.478H550.983C556.303 116.478 560.646 120.808 560.646 126.112V259.368C560.646 264.673 556.303 268.894 550.983 268.894Z" fill="#DFE6F7"/>
<path d="M367.938 136.937H341.122C338.516 136.937 336.453 134.88 336.453 132.282C336.453 129.684 338.516 127.627 341.122 127.627H367.938C370.544 127.627 372.606 129.684 372.606 132.282C372.606 134.772 370.544 136.937 367.938 136.937Z" fill="#656D8B"/>
<path d="M540.344 136.937H482.694C480.088 136.937 478.025 134.88 478.025 132.282C478.025 129.684 480.088 127.627 482.694 127.627H540.344C542.949 127.627 545.012 129.684 545.012 132.282C545.012 134.772 542.841 136.937 540.344 136.937Z" fill="#BDC4CF"/>
<path d="M657.163 93.2037H613.302C611.348 93.2037 609.828 91.6882 609.828 89.7397C609.828 87.7911 611.348 86.2756 613.302 86.2756H657.163C659.118 86.2756 660.638 87.7911 660.638 89.7397C660.638 91.6882 659.009 93.2037 657.163 93.2037Z" fill="#00C45A"/>
<path d="M632.084 82.0539H612.976C611.022 82.0539 609.502 80.5384 609.502 78.5899C609.502 76.6414 611.022 75.1259 612.976 75.1259H632.084C634.038 75.1259 635.558 76.6414 635.558 78.5899C635.558 80.5384 634.038 82.0539 632.084 82.0539Z" fill="#F2FEF8"/>
<path d="M649.021 502.066C649.021 502.066 649.998 508.236 649.021 508.778C648.044 509.319 662.701 508.778 663.244 508.669C663.787 508.561 663.461 505.855 663.461 505.855L663.678 500.659L649.021 502.066Z" fill="#F8BAC1"/>
<path d="M598.102 500.767L597.233 507.803L612.216 508.02L611.673 500.984L598.102 500.767Z" fill="#F8BAC1"/>
<path d="M516.567 196.15C523.762 196.15 529.595 190.334 529.595 183.16C529.595 175.986 523.762 170.17 516.567 170.17C509.372 170.17 503.539 175.986 503.539 183.16C503.539 190.334 509.372 196.15 516.567 196.15Z" fill="#D2F0DB"/>
<path d="M516.568 192.145C521.545 192.145 525.579 188.122 525.579 183.16C525.579 178.198 521.545 174.175 516.568 174.175C511.591 174.175 507.557 178.198 507.557 183.16C507.557 188.122 511.591 192.145 516.568 192.145Z" fill="#A1DFB6"/>
<path d="M516.568 188.248C519.386 188.248 521.67 185.97 521.67 183.16C521.67 180.35 519.386 178.072 516.568 178.072C513.749 178.072 511.465 180.35 511.465 183.16C511.465 185.97 513.749 188.248 516.568 188.248Z" fill="#26B54A"/>
<path d="M344.053 208.166C344.053 208.166 348.613 178.722 372.172 180.67C395.731 182.51 407.891 215.202 423.308 212.821C438.724 210.439 447.084 183.16 456.855 185.541C466.626 187.923 464.998 197.99 470.1 196.583C475.203 195.284 487.688 165.515 493.334 165.515C498.98 165.515 502.562 176.557 508.534 179.804C514.505 183.052 516.459 183.376 518.848 180.995" stroke="#2BAC52" stroke-width="2" stroke-miterlimit="10" stroke-linecap="round"/>
<path d="M665.958 516.463V519.927L621.01 520.144C620.793 518.845 620.793 517.654 621.119 516.68C621.119 516.68 621.119 516.68 621.119 516.572C622.313 512.458 627.199 510.185 630.89 509.427C632.518 509.102 634.038 509.102 634.69 509.427C637.404 510.51 649.129 506.504 649.129 506.504C657.924 510.293 663.243 505.855 663.243 505.855C666.826 507.046 665.958 516.463 665.958 516.463Z" fill="#92CCFF"/>
<path d="M665.958 516.68V519.927L621.01 520.144C620.793 518.845 620.793 517.654 621.119 516.68H665.958Z" fill="#111F72"/>
<path d="M631.216 516.572H621.228C622.422 512.458 627.307 510.185 630.999 509.427L631.216 516.572Z" fill="#E1E6F9"/>
<path d="M614.496 514.082V517.546L569.549 517.762C569.332 516.463 569.332 515.273 569.657 514.298C569.657 514.298 569.657 514.298 569.657 514.19C570.852 510.077 575.737 507.803 579.429 507.046C581.057 506.721 582.577 506.721 583.228 507.046C585.943 508.128 597.668 504.123 597.668 504.123C606.462 507.912 611.782 503.473 611.782 503.473C615.365 504.664 614.496 514.082 614.496 514.082Z" fill="#92CCFF"/>
<path d="M614.496 514.298V517.546L569.549 517.762C569.332 516.463 569.332 515.273 569.657 514.298H614.496Z" fill="#111F72"/>
<path d="M579.754 514.298L569.658 514.19C570.852 510.077 575.737 507.803 579.429 507.046L579.754 514.298Z" fill="#E1E6F9"/>
<path d="M659.769 305.483C659.769 305.483 663.026 318.04 661.832 336.768C660.638 355.495 657.163 403.775 657.381 409.079C657.598 414.383 663.135 461.472 663.135 463.962C663.135 466.452 666.392 502.174 666.392 502.174C666.392 502.174 645.655 504.772 644.027 502.174C642.398 499.576 633.387 409.512 633.387 409.512L629.261 339.582L620.25 430.621C620.25 430.621 617.97 501.092 614.93 501.741C611.891 502.391 597.451 502.716 595.931 501.525C594.52 500.334 603.422 311.004 603.422 311.004C603.422 311.004 634.147 322.37 659.769 305.483Z" fill="#22B6FD"/>
<path d="M555.87 174.608C557.39 168.438 563.795 171.577 563.795 171.577C563.795 171.577 558.476 166.165 561.19 164.216C563.795 162.268 569.332 163.458 569.332 163.458C569.332 163.458 569.332 159.128 571.395 158.479C573.458 157.829 574.435 160.752 576.172 160.752C577.909 160.752 593.652 153.391 599.84 167.572C606.028 181.753 596.366 189.547 596.366 189.547L566.184 181.103C566.401 180.995 554.024 182.186 555.87 174.608Z" fill="#04203F"/>
<path d="M619.816 211.197C616.125 223.213 592.891 227.651 592.891 227.651C592.891 227.651 578.452 225.378 582.686 221.048C584.097 219.64 584.64 218.125 584.857 216.718C585.183 213.687 583.771 211.197 583.771 211.197C582.903 211.305 582.034 211.305 581.166 211.197C562.601 210.006 567.486 173.201 567.486 173.201C572.372 172.118 573.023 169.196 573.023 169.196C573.675 173.417 582.251 170.495 584.749 169.196C587.246 167.897 589.2 171.144 589.2 171.144C589.2 171.144 585.943 180.887 588.766 180.778C591.697 180.67 594.411 184.675 594.411 184.675C595.822 182.835 604.291 181.644 604.725 188.139C605.159 194.634 599.297 194.851 599.297 194.851C600.599 204.918 619.816 211.197 619.816 211.197Z" fill="#FABBC3"/>
<path d="M593.759 203.836C593.542 212.496 588.548 215.635 584.857 216.718C585.183 213.687 583.771 211.197 583.771 211.197C582.903 211.305 582.034 211.305 581.166 211.197C581.817 210.764 582.685 210.656 583.663 210.656C589.091 211.089 593.759 203.836 593.759 203.836Z" fill="#FF8388"/>
<path d="M578.56 180.021C578.56 180.021 580.949 178.18 583.554 181.644" stroke="black" stroke-miterlimit="10" stroke-linecap="round"/>
<path d="M568.68 182.727C568.68 182.727 569.874 179.155 572.914 180.345" stroke="black" stroke-miterlimit="10" stroke-linecap="round"/>
<path d="M574.326 182.402C574.326 182.402 575.303 187.923 574 191.82C572.697 195.717 573.783 197.341 578.668 196.258" stroke="#FF8388" stroke-miterlimit="10"/>
<path d="M580.623 190.846C581.403 190.846 582.035 189.876 582.035 188.681C582.035 187.485 581.403 186.516 580.623 186.516C579.844 186.516 579.212 187.485 579.212 188.681C579.212 189.876 579.844 190.846 580.623 190.846Z" fill="black"/>
<path d="M571.069 191.387C571.849 191.387 572.48 190.418 572.48 189.222C572.48 188.026 571.849 187.057 571.069 187.057C570.29 187.057 569.658 188.026 569.658 189.222C569.658 190.418 570.29 191.387 571.069 191.387Z" fill="black"/>
<path d="M594.411 191.928C594.411 191.928 596.365 186.299 602.228 187.49" stroke="#FF8388" stroke-miterlimit="10" stroke-linecap="round"/>
<path d="M600.056 191.712C600.056 191.712 597.017 191.712 597.017 188.681" stroke="#FF8388" stroke-miterlimit="10" stroke-linecap="round"/>
<path d="M574.217 199.289C574.217 199.289 579.754 200.047 582.36 198.423C584.965 196.8 582.794 202.537 578.451 203.295C574.108 204.161 574.217 199.289 574.217 199.289Z" fill="white"/>
<path d="M560.972 259.26C560.972 259.26 549.138 303.21 549.138 304.617C549.138 305.916 542.298 326.592 541.647 332.87C540.887 339.041 532.201 341.097 532.201 343.804C532.201 346.402 544.795 342.721 546.749 340.015C548.595 337.417 551.092 344.345 552.178 344.345C553.263 344.345 551.852 338.175 549.681 335.144C547.618 332.113 557.172 319.123 561.515 310.138C565.857 301.153 579.103 263.698 579.103 263.698L560.972 259.26Z" fill="#F7BCC2"/>
<path d="M558.909 261.642C558.909 261.642 564.446 245.512 564.446 243.239C564.446 240.966 570.308 223.321 585.074 220.939C585.074 220.939 603.313 224.403 617.427 210.764L619.816 211.197C619.816 211.197 633.387 214.228 635.667 214.661C637.946 215.094 652.495 218.233 654.015 238.368C655.535 258.502 659.334 281.993 659.877 287.08C660.42 292.168 664.22 307.107 660.854 309.38C657.38 311.653 618.513 326.159 601.902 313.169C601.902 313.169 599.513 288.271 598.21 284.482C596.908 280.694 585.942 260.451 584.097 260.343C582.251 260.234 581.057 265.43 581.057 265.43L558.909 261.642Z" fill="#4E5986"/>
<path d="M627.524 256.229C627.524 256.229 630.347 236.311 632.084 234.362C633.821 232.414 623.073 248.219 622.313 258.394C621.553 268.57 623.942 273.982 622.639 278.421C621.227 282.859 618.513 296.065 618.513 296.065C618.513 296.065 630.781 276.797 627.524 256.229Z" fill="#414C6D"/>
<path d="M627.524 256.229C627.524 256.229 627.198 277.446 624.701 281.018C622.204 284.591 602.987 320.638 601.142 322.37C599.296 324.102 588.331 326.7 584.205 333.303C580.079 339.907 588.114 347.051 588.114 347.051C588.114 347.051 597.885 341.747 600.599 335.793C600.599 335.793 630.781 304.184 635.449 299.096C640.118 294.009 649.02 266.946 649.02 263.049C649.02 259.152 645.22 256.987 627.524 256.229Z" fill="#F8BAC1"/>
<path d="M308.877 361.016V520.252H322.014V361.34C322.122 361.34 309.42 361.449 308.877 361.016Z" fill="#BDC3D1"/>
<path d="M525.688 361.016V520.252H538.824V361.34C538.824 361.34 526.122 361.449 525.688 361.016Z" fill="#BDC3D1"/>
<path d="M622.096 353.871V349.108H583.229V353.763C583.229 353.763 622.096 353.546 622.096 353.871Z" fill="#A5B3E1"/>
<path d="M516.676 347.484V353.763H585.617V348.026C585.617 348.026 517.111 347.809 516.676 347.484Z" fill="#505A73"/>
<path d="M499.196 296.173H579.754L590.719 349.108L510.27 349L499.196 296.173Z" fill="#616D86"/>
<path d="M340.578 301.694C340.578 301.694 340.361 309.055 340.361 309.921C340.361 310.896 337.43 315.334 337.43 315.334L344.052 315.442C344.052 315.442 346.549 316.849 343.835 318.69C341.121 320.53 338.515 323.886 340.361 326.159C342.207 328.432 355.126 319.664 355.126 319.231C355.126 318.798 358.058 311.329 356.972 308.839C355.886 306.349 350.675 299.638 350.675 299.638L340.578 301.694Z" fill="#C35E2F"/>
<path d="M493.334 206.326C492.682 205.893 492.682 205.027 493.225 204.594C494.962 203.078 498.002 199.831 498.219 197.341C498.545 193.768 497.459 192.361 500.391 190.737C502.888 189.438 513.419 182.943 516.676 180.887C517.219 180.562 517.979 180.778 518.304 181.32C518.521 181.753 518.413 182.294 518.087 182.619L512.116 188.681C511.573 189.222 511.682 190.196 512.442 190.521C514.07 191.279 516.35 192.686 516.242 194.31C516.133 196.799 516.35 203.186 514.396 203.186C512.442 203.186 512.55 200.697 512.007 200.913C511.356 201.13 508.75 205.676 506.362 205.676C504.516 205.676 501.802 208.599 500.499 210.006C500.173 210.439 499.522 210.547 498.979 210.223L493.334 206.326Z" fill="#C66231"/>
<path d="M441.873 496.004C441.873 496.004 442.524 504.231 445.781 505.638C449.147 507.046 465.866 511.917 466.192 514.623C466.518 517.329 466.843 520.469 466.843 520.469H421.245C421.245 520.469 415.273 518.087 418.096 508.02C420.919 497.952 421.136 495.896 421.136 495.896L441.873 496.004Z" fill="black"/>
<path d="M361.531 496.545C361.531 496.545 359.143 505.855 358.492 506.613C357.84 507.37 356.32 511.809 358.166 513.432C360.012 515.056 396.491 514.84 396.491 514.84C396.491 514.84 406.804 514.84 406.479 512.458C406.153 510.077 398.445 505.855 393.993 505.53C389.542 505.205 382.268 500.984 381.942 497.52C381.617 494.056 361.531 496.545 361.531 496.545Z" fill="#000201"/>
<path d="M359.469 497.303C359.469 497.303 382.16 501.741 384.44 496.762C386.611 491.891 392.474 397.388 392.474 397.388L395.948 336.768L413.102 399.878L417.879 497.736L444.152 496.545L437.313 398.579C437.313 398.579 427.759 305.05 426.022 296.931L366.852 295.957C366.852 295.957 361.966 306.674 362.943 327.891C363.921 349.108 368.046 389.486 367.395 394.14C366.635 398.795 359.469 497.303 359.469 497.303Z" fill="#1F2C7A"/>
<path d="M237.33 353.655V366.536L629.804 366.645L629.696 353.763C629.696 353.763 237.33 353.113 237.33 353.655Z" fill="#FFA002"/>
<path d="M382.92 325.726C382.92 325.726 392.149 333.52 395.514 333.845" stroke="black" stroke-miterlimit="10"/>
<path d="M429.278 166.922C429.278 166.922 428.301 168.654 428.736 170.711C429.17 172.876 430.69 184.784 419.507 183.376L423.524 191.82L416.902 191.279L391.714 189.005C391.714 189.005 398.228 182.077 397.794 174.067C397.359 166.056 409.953 139.318 421.462 139.751C421.462 139.751 426.673 145.813 426.89 150.793C427.107 155.772 430.038 160.968 430.473 161.834C430.69 162.7 433.404 165.515 429.278 166.922Z" fill="#C66231"/>
<path d="M423.525 191.82L416.902 191.279L412.776 189.763L410.931 176.015C410.931 176.015 409.519 168.546 414.296 176.99C414.296 176.99 416.142 180.887 419.616 183.376L423.525 191.82Z" fill="#963E18"/>
<path d="M422.222 152.2C422.222 152.2 422.656 147.979 426.347 148.52" stroke="black" stroke-miterlimit="10" stroke-linecap="round"/>
<path d="M426.364 158.706C426.763 158.575 426.798 157.595 426.443 156.515C426.087 155.436 425.476 154.667 425.077 154.798C424.678 154.928 424.643 155.909 424.999 156.988C425.354 158.067 425.965 158.837 426.364 158.706Z" fill="black"/>
<path d="M501.694 210.439C501.694 210.439 472.923 253.306 469.883 256.337C466.735 259.26 461.958 261.425 457.398 256.879C452.838 252.332 439.484 236.852 439.484 236.852C439.484 236.852 436.661 234.471 436.118 242.59C435.575 250.817 431.341 275.281 430.581 278.312C429.821 281.235 429.821 297.797 429.821 298.447C429.821 299.096 426.456 298.772 422.982 300.179C419.616 301.586 385.851 311.004 363.16 298.014C363.16 298.014 370 278.962 368.589 273.008C367.177 267.054 361.532 246.378 361.532 246.378L349.372 256.987C349.372 256.987 348.829 261.533 349.807 267.379C350.784 273.333 352.521 300.071 352.521 300.071C352.521 300.071 342.207 304.184 339.275 302.777C339.275 302.777 332.87 275.281 331.024 271.059C329.179 266.838 325.27 255.363 330.59 247.028C335.91 238.692 355.343 207.516 355.343 207.516C355.343 207.516 364.355 193.011 384.331 190.413C384.331 190.413 386.611 190.413 389.434 188.681C391.388 187.49 393.56 185.541 395.514 182.186C395.514 182.186 415.707 180.778 421.027 184.675L424.284 191.171C424.284 191.171 433.621 196.8 436.335 196.908C439.05 197.016 446.975 197.666 453.706 209.357C460.546 221.048 465.323 227.11 465.323 227.11L492.899 202.97L501.694 210.439Z" fill="#2847E0"/>
<path d="M424.393 191.387L389.651 188.897C391.606 187.706 393.777 185.758 395.731 182.402C395.731 182.402 415.925 180.995 421.245 184.892L424.393 191.387Z" fill="white"/>
<path d="M420.377 136.396C419.617 135.421 410.388 131.091 402.137 134.88C393.777 138.669 390.412 139.86 387.589 145.922C381.292 159.453 387.915 174.933 396.057 175.258C404.2 175.582 410.388 175.041 412.234 162.809C412.451 159.994 414.514 155.556 417.445 158.154C420.377 160.644 419.291 159.886 419.291 159.886L420.92 158.154C420.92 158.154 418.531 155.231 419.291 153.174C420.051 151.009 419.942 146.355 419.508 145.164C419.074 143.973 422.657 144.081 423.417 140.184" fill="#331531"/>
<path d="M419.616 170.386C418.313 170.386 417.227 170.062 416.25 169.412C414.73 168.33 413.645 166.598 413.319 164.324C412.559 159.778 414.947 158.804 415.056 158.695C415.382 158.587 415.599 158.695 415.707 159.02C415.816 159.345 415.707 159.561 415.382 159.67C415.273 159.67 413.645 160.427 414.296 164.108C414.622 166.165 415.49 167.68 416.793 168.438C417.987 169.196 419.507 169.412 421.244 168.979C421.57 168.871 421.787 169.087 421.896 169.412C422.004 169.737 421.787 169.953 421.462 170.062C420.919 170.278 420.267 170.386 419.616 170.386Z" fill="#963E18"/>
<path d="M421.679 166.598C421.462 166.598 421.136 166.381 421.136 166.165C420.485 162.051 416.142 161.726 415.925 161.726C415.599 161.726 415.382 161.401 415.382 161.185C415.382 160.968 415.708 160.644 415.925 160.644C415.925 160.644 421.353 161.077 422.113 166.056C422.222 166.273 422.005 166.598 421.679 166.598Z" fill="#963E18"/>
<path d="M418.531 167.031C418.422 167.031 418.205 166.922 418.096 166.814C417.879 166.598 417.988 166.273 418.205 166.056C419.182 165.19 418.856 163.134 418.639 162.484C418.531 162.159 418.748 161.943 418.965 161.835C419.291 161.726 419.508 161.943 419.616 162.159C419.616 162.268 420.594 165.515 418.856 166.922C418.856 167.031 418.639 167.031 418.531 167.031Z" fill="#963E18"/>
<path d="M51 120.5C51 116.845 49.7866 113.294 47.5502 110.403C45.3138 107.513 42.181 105.446 38.6434 104.529C35.1058 103.611 31.3636 103.894 28.004 105.333C24.6445 106.771 21.8577 109.285 20.081 112.479C18.3043 115.672 17.6382 119.366 18.1873 122.979C18.7364 126.592 20.4696 129.921 23.1149 132.443C25.7602 134.965 29.1679 136.537 32.8032 136.913C36.4385 137.288 40.0958 136.447 43.2011 134.519L34.5 120.5H51Z" fill="#3434FF"/>
<path d="M51 120.5C51 118.333 50.5732 116.188 49.744 114.186C48.9148 112.184 47.6994 110.365 46.1673 108.833C44.6351 107.301 42.8161 106.085 40.8143 105.256C38.8124 104.427 36.6668 104 34.5 104V120.5H51Z" fill="#FFCF26"/>
<path d="M51 120.5C51 118.333 50.5732 116.188 49.744 114.186C48.9148 112.184 47.6994 110.365 46.1673 108.833L34.5 120.5H51Z" fill="#FFCF26"/>
<path d="M51 120.5C51 122.898 50.4775 125.266 49.4689 127.441L34.5 120.5H51Z" fill="#FFCF26"/>
<path d="M47.4094 130.776C45.4002 133.3 42.6951 135.18 39.6288 136.183L34.5 120.5L47.4094 130.776Z" fill="#FFCF26"/>
<path d="M47.4071 130.779C48.3269 129.624 49.0875 128.351 49.6686 126.993L34.5 120.5L47.4071 130.779Z" fill="#FFCF26"/>
</svg>
